<?xml version="1.0" standalone="no"?>
<!DOCTYPE svg PUBLIC "-//W3C//DTD SVG 20010904//EN"
 "http://www.w3.org/TR/2001/REC-SVG-20010904/DTD/svg10.dtd">
<svg version="1.0" xmlns="http://www.w3.org/2000/svg"
 width="256.000000pt" height="256.000000pt" viewBox="0 0 256.000000 256.000000"
 preserveAspectRatio="xMidYMid meet">
<metadata>
Created by potrace 1.11, written by Peter Selinger 2001-2013
</metadata>
<g transform="translate(0.000000,256.000000) scale(0.100000,-0.100000)"
fill="#000000" stroke="none">
<path d="M143 2273 c-12 -2 -33 -16 -47 -30 -25 -25 -26 -29 -26 -159 l0 -134
1210 0 1210 0 0 49 c0 38 -6 56 -24 78 l-24 28 -709 5 -708 5 -5 53 c-4 39
-12 59 -33 80 l-27 27 -398 1 c-218 1 -407 0 -419 -3z"/>
<path d="M60 1855 c-57 -30 -55 -7 -55 -780 0 -768 -1 -747 53 -776 37 -21
2407 -21 2444 0 54 29 53 8 53 780 0 675 -1 718 -18 743 -10 14 -32 31 -49 37
-21 8 -396 11 -1217 11 -989 -1 -1190 -3 -1211 -15z"/>
</g>
</svg>
